<svg xmlns="http://www.w3.org/2000/svg" viewBox="0 0 18 18" width="100%" height="100%"  xmlns:xlink="http://www.w3.org/1999/xlink" preserveAspectRatio="xMinYMin meet"><rect id="svgEditorBackground" x="0" y="0" width="18" height="18" style="fill:none;stroke:none;"/><defs id="svgEditorDefs"><linearGradient gradientUnits="objectBoundingBox" id="lgrd2-black-white" spreadMethod="pad" x1="0%" x2="100%" y1="0%" y2="100%"><stop offset="0%" stop-color="black"/><stop offset="100%" stop-color="white"/></linearGradient></defs><defs><linearGradient id="a" x1="4589.72" y1="-5180.02" x2="4589.72" y2="-5184.21" gradientTransform="matrix(.5 0 0 -.5 -2275.31 -2589.32)" gradientUnits="userSpaceOnUse"><stop offset="0" stop-color="#c69aeb"/><stop offset="1" stop-color="#6f4bb2"/></linearGradient><linearGradient id="b" x1="4587.99" y1="-5188.47" x2="4587.99" y2="-5192.65" href="#a"/></defs><path d="M12.7,8.15v-0.6H8.18L6.06,9.66H4.5L8.12,6h2.47v-0.57H7.87L3.65,9.66h-0.6v0.6h1.81L7,12.37h5.1v-0.6H7.22l-1.51,-1.51h3.67v-0.6H6.92l1.5,-1.51Z" fill="#141a46"/><circle cx="10.89" cy="5.74" r="1.06104" style="fill:#141a46;"/><circle cx="12.97" cy="7.85" r="1.05" fill="#141a46"/><circle cx="12.100000381469727" cy="12.069999694824219" r="1.0499999523162842" fill="#141a46"/><circle cx="9.979999542236328" cy="9.960000038146973" r="0.782656" fill="#141a46"/><g fill="#999"><path d="M1.07 1.43h1.29V5a.29.29 0 01-.29.29H.79A.29.29 0 01.5 5V2a.57.57 0 01.57-.57z"/><path d="M1.07,1.4300000000000002h1.29V5a0.29000000000000004,0.29000000000000004,0,0,1,-0.29000000000000004,0.29000000000000004H0.79A0.29000000000000004,0.29000000000000004,0,0,1,0.5,5V2a0.5700000000000001,0.5700000000000001,0,0,1,0.5700000000000001,-0.5700000000000001Z" opacity=".5" style="fill:#141a46;"/></g><g fill="#999"><path d="M15.64 1.43h1.29a.57.57 0 01.57.57v3a.29.29 0 01-.29.29h-1.29a.29.29 0 01-.28-.29V1.43z"/><path d="M15.64,1.4300000000000002h1.29a0.5700000000000001,0.5700000000000001,0,0,1,0.5700000000000001,0.5700000000000001v3a0.29000000000000004,0.29000000000000004,0,0,1,-0.29000000000000004,0.29000000000000004h-1.29a0.29000000000000004,0.29000000000000004,0,0,1,-0.28,-0.29000000000000004V1.4300000000000002Z" opacity=".5" style="fill:#141a46;"/></g><path d="M17.5,2v1.25H0.5V2a0.5700000000000001,0.5700000000000001,0,0,1,0.5700000000000001,-0.5700000000000001h15.870000000000001a0.5700000000000001,0.5700000000000001,0,0,1,0.56,0.5700000000000001Z" fill="#141a46"/><g fill="#999"><path d="M.79 12.68h1.29a.29.29 0 01.29.29v3.6h-1.3A.57.57 0 01.5 16v-3a.29.29 0 01.29-.32z"/><path d="M0.79,12.68h1.29a0.29000000000000004,0.29000000000000004,0,0,1,0.29000000000000004,0.29000000000000004v3.6h-1.3A0.5700000000000001,0.5700000000000001,0,0,1,0.5,16v-3a0.29000000000000004,0.29000000000000004,0,0,1,0.29000000000000004,-0.32000000000000006Z" opacity=".5" style="fill:#141a46;"/></g><g fill="#999"><path d="M15.92 12.68h1.29a.29.29 0 01.29.29v3a.57.57 0 01-.57.57h-1.29V13a.29.29 0 01.28-.32z"/><path d="M15.92,12.68h1.29a0.29000000000000004,0.29000000000000004,0,0,1,0.29000000000000004,0.29000000000000004v3a0.5700000000000001,0.5700000000000001,0,0,1,-0.5700000000000001,0.5700000000000001h-1.29V13a0.29000000000000004,0.29000000000000004,0,0,1,0.28,-0.32000000000000006Z" opacity=".5" style="fill:#141a46;"/></g><path d="M0.5,16v-1.25h17V16a0.5700000000000001,0.5700000000000001,0,0,1,-0.5700000000000001,0.5700000000000001H1.07A0.5700000000000001,0.5700000000000001,0,0,1,0.5,16Z" fill="#141a46"/></svg>