<?xml version="1.0" encoding="utf-8"?>
<!-- Generator: Adobe Illustrator 23.0.1, SVG Export Plug-In . SVG Version: 6.00 Build 0)  -->
<svg version="1.1" id="Layer_1" xmlns="http://www.w3.org/2000/svg" xmlns:xlink="http://www.w3.org/1999/xlink" x="0px" y="0px"
	 viewBox="0 0 1000 1000" style="enable-background:new 0 0 1000 1000;" xml:space="preserve">
<style type="text/css">
	.st0{fill:#000000;}
	.st1{fill-rule:evenodd;clip-rule:evenodd;fill:#000000;}
</style>
<g transform="matrix(.229053 0 0 .229053 -.144648 10.46444)">
	<path class="st0" d="M2215,2114.7h-67.2v-262.5c-0.3-26,0.6-51.9,2.9-77.8c-2.2,13-6.1,25.6-11.7,37.4l-123.1,305.3H1969
		l-123.3-302.2l-11.7-40.7c2.9,17.3,2.9,43.2,2.9,80.7v262.8h-64.5v-406.6h96.7l108.5,270.9l17.6,46.1c4.5-16.8,10.3-33.2,17.6-49
		l111.4-270.9h93.8L2215,2114.7z M2341.1,1763c-11,0.6-21.7-3.6-29.3-11.5c-7.9-6.2-12.2-15.9-11.7-25.9
		c-1.1-10.1,3.4-20.1,11.7-25.9c8.4-6.7,18.6-10.8,29.3-11.5c11-0.6,21.7,3.6,29.3,11.5c7.9,6.2,12.2,15.9,11.7,25.9
		c1.1,10.1-3.4,20.1-11.7,25.9C2362.7,1759.4,2352.1,1763.6,2341.1,1763z M2373.3,2114.7h-67.4v-291.1h67.4V2114.7z M2675.2,2103.2
		c-23.5,14.4-52.8,20.4-85,20.4c-44,0-79.2-14.4-105.6-40.4s-40.7-60.5-40.7-103.8c0-49,14.7-86.5,44-115.3
		c29.3-28.8,67.4-43.2,117.2-43.2c24.2,0,48.1,4.9,70.3,14.4v60.4c-18.7-13.9-41.2-22-64.5-23.1c-29.2,0-52.8,8.6-70.3,28.8
		c-18,20.6-27.5,47.3-26.4,74.6c0,28.8,8.8,54.7,26.4,72c18.1,17.3,42.4,26.6,67.4,25.9c24.8-0.3,48.8-9.5,67.4-25.9v55.2
		L2675.2,2103.2z M2912.6,1887.1c-10.6-6.2-22.8-9.2-35.2-8.6c-20.4,0-35.2,8.6-49.9,25.9c-14.6,17.3-20.4,40.7-20.4,72v138.4h-67.4
		v-291.2h67.4v60.5c5.5-18.5,15.6-35.3,29.3-49c12.8-11.6,29.6-17.8,46.9-17.3c9.1-0.1,18.2,1.8,26.4,5.8L2912.6,1887.1z
		 M3091.3,2123.5c-46.9,0-82.1-14.4-108.5-40.4s-40.7-63.4-40.7-106.5c0-49,14.7-86.5,44-115.3c29.3-28.8,67.4-40.7,114.3-40.7
		s82.1,14.4,108.5,40.7c26.5,26.3,37.8,63.2,37.8,112.2c1.2,41.3-13.3,81.5-40.7,112.4c-32.8,25.3-73.2,38.7-114.6,37.8
		L3091.3,2123.5z M3094.3,1869.9c-26.4,0-46.9,8.6-61.5,25.9c-14.7,17.3-23.5,43.2-23.5,74.6c0,31.4,8.8,54.7,23.5,72
		s35.2,25.9,61.5,25.9s46.9-8.6,61.5-25.9s20.4-40.4,20.4-74.6c0-31.7-5.8-57.6-20.4-74.6c-16.6-15.7-38.8-24-61.5-23.1
		L3094.3,1869.9z M3293.6,2106v-60.7c26.4,17.3,52.8,28.8,82.1,28.8c41,0,61.5-11.5,61.5-34.6c-0.6-6.1-2.6-12.1-5.8-17.3
		c-3.5-5.3-8.6-9.4-14.7-11.5c-6.6-3.4-13.4-6.3-20.4-8.6l-26.4-8.6c-11-4.2-21.7-9-32.2-14.4c-8.3-5.1-16.2-10.8-23.5-17.3
		c-6.5-6.5-11.5-14.4-14.7-23.1c-3.6-9.2-5.6-19-5.8-28.8c-0.2-13,2.8-25.9,8.8-37.4c5.7-11.3,15-20.4,26.4-25.9
		c11.7-8.6,23.5-11.5,38.1-17.3c14.4-3.3,29.2-5.3,44-5.8c24.9-0.9,49.8,3.1,73.3,11.5v57.7c-20.7-14.1-45.3-21.2-70.3-20.4
		c-7.9-0.7-15.9,0.3-23.5,2.9c-5.8,2.9-11.7,2.9-17.6,5.8c-5.2,2.2-9.4,6.4-11.7,11.5c-2.4,4.4-3.4,9.4-2.9,14.4
		c-0.5,5.9,0.5,11.9,2.9,17.3c2.3,5.2,6.5,9.3,11.7,11.5c6.6,3.4,13.4,6.3,20.4,8.6c8.8,2.9,14.7,5.8,26.4,8.6
		c11.2,6,22.9,10.8,35.1,14.4c11.7,2.9,17.6,11.5,26.4,17.3c6.5,7.1,12.4,14.9,17.6,23.1c3.6,10.2,5.6,20.9,5.8,31.7
		c0,14.4-2.9,28.8-11.7,37.4c-6.4,10.8-15.5,19.8-26.3,26.2c-13.1,6.8-26.7,12.6-40.7,17.3C3381.5,2131.6,3334.5,2126.5,3293.6,2106
		L3293.6,2106z M3701.2,2123.5c-46.9,0-82.1-14.4-108.5-40.4s-40.7-63.4-40.7-106.5c0-49,14.7-86.5,44-115.3
		c29.3-28.8,67.4-40.7,114.3-40.7c46.9,0,82.1,14.4,108.5,40.7c26.5,26.3,38.1,63.4,38.1,112.4c1.2,41.3-13.3,81.5-40.7,112.4
		c-33.2,25-73.8,38.2-115.3,37.5L3701.2,2123.5z M3704.1,1869.9c-26.4,0-46.9,8.6-61.5,25.9c-14.6,17.3-23.5,43.2-23.5,74.6
		c0,31.4,8.8,54.7,23.5,72s35.2,25.9,61.5,25.9s46.9-8.6,61.5-25.9c14.6-17.3,20.4-40.4,20.4-74.6c0-31.7-5.8-57.6-20.4-74.6
		c-16.5-15.9-38.8-24.4-61.7-23.5L3704.1,1869.9z M4087.9,1740c-9.7-5.9-20.9-8.9-32.2-8.6c-32.2,0-49.9,17.3-49.9,54.7v40.4h67.4
		v51.9h-67.4v239.4h-67.2v-239.5h-49.9v-51.9h49.9v-46.1c0-31.7,8.8-54.7,29.2-72c32.5-25,75.2-32.6,114.3-20.4v51.9h5.6
		L4087.9,1740z M4281.5,2111.8c-11.7,5.7-29.3,8.6-52.8,8.6c-58.6,0-85-25.9-85-80.7v-164.2h-49.9v-51.9h49.9v-66.3l67.4-17.3v86.5
		h70.3v51.9h-70.3v144.4c-0.9,13.1,2.1,26.2,8.8,37.4c5.8,8.6,17.6,11.5,32.2,11.5c10.4,0.1,20.7-3,29.2-9v49L4281.5,2111.8z
		 M2183.2,2713.3H2107l-38.1-103.7h-164.2l-35.2,103.8h-76.2l155.4-406.4h76L2183.2,2713.3z M2051.3,2554.7l-58.6-161.4
		c-2.6-8.5-4.5-17.1-5.8-25.9c-1.3,8.8-3.3,17.4-5.8,25.9l-55.7,161.4H2051.3z M2450.3,2450.8L2292,2661.1h158.3v51.9h-252.4v-25.4
		l164.2-213.5h-146.5v-51.9H2453v28.6L2450.3,2450.8z M2766.5,2713.3h-67.4v-46.1c-17.8,33.3-53.1,53.5-90.9,51.9
		c-70.3,0-105.6-40.4-105.6-123.9v-173h67.4v167.2c0,51.9,20.5,77.8,61.5,77.8c18.8,0.8,37-6.7,49.9-20.4
		c13.2-16.3,20.4-36.7,20.4-57.7v-167h67.4L2766.5,2713.3z M3024.5,2485.6c-10.6-6.2-22.8-9.2-35.2-8.6c-20.4,0-35.2,8.6-49.9,25.9
		c-14.6,17.3-20.4,40.7-20.4,72v138.4h-67.4v-291.2h67.4v60.5c5.5-18.5,15.6-35.3,29.3-49c12.7-11.5,29.2-17.6,46.4-17.3
		c9.1-0.1,18.2,1.8,26.4,5.8L3024.5,2485.6z M3323.4,2586.5h-202.2c0,25.9,8.8,49,26.4,63.4c14.7,14.4,38.1,23.1,67.4,23.1
		c31.8,0.7,62.9-9.5,88.2-28.8v51.9c-26.6,17.4-61.9,26.1-105.8,26.1c-38.4,1.3-75.5-13.5-102.6-40.7
		c-26.4-25.9-38.1-63.4-38.1-112.4c-1.4-40.5,13.2-79.8,40.7-109.6c26.3-28.6,63.7-44.4,102.6-43.3c40.7,0,70.3,11.5,93.8,37.4
		c23.5,25.9,32.2,60.5,32.2,106.5L3323.4,2586.5z M3258.9,2540.3c0-23.1-5.8-43.2-17.6-54.7c-11.4-14-28.9-21.6-46.9-20.4
		c-18.8-0.8-37,6.7-49.9,20.4c-14.7,14.4-20.4,31.7-23.5,54.7L3258.9,2540.3z"/>
	<path class="st1" d="M1003,1726l-218.6,440.3l384.9,446.1l-714.3,81.1l1108.4,11.6L1003,1726z M959.9,1552.2l-501.9,420
		L85.5,2600.7l317.1-31.8L959.9,1552.2z"/>
</g>
</svg>
