<svg id="svg" xmlns="http://www.w3.org/2000/svg" xmlns:xlink="http://www.w3.org/1999/xlink" width="400" height="400" viewBox="0, 0, 400,400"><g id="svgg"><path id="path0" d="M173.828 2.030 C 149.718 4.292,134.228 6.711,118.422 10.684 C 82.544 19.701,55.987 34.755,48.827 50.137 L 46.890 54.297 46.883 134.894 L 46.875 215.492 50.586 218.194 C 80.309 239.840,123.806 231.944,141.797 201.636 C 144.702 196.741,144.346 196.691,148.192 202.539 C 173.069 240.365,228.254 240.155,253.495 202.138 C 257.091 196.723,256.459 196.722,259.894 202.148 C 278.531 231.598,318.516 239.594,348.240 219.815 L 354.709 215.511 354.503 136.467 L 354.297 57.422 352.245 53.047 C 341.498 30.129,297.560 10.849,239.160 3.427 C 229.873 2.247,182.352 1.231,173.828 2.030 M220.313 23.824 C 279.346 26.348,321.494 46.196,305.248 63.821 C 271.633 100.289,89.844 93.234,89.844 55.461 C 89.844 37.658,148.721 20.978,203.906 23.145 C 207.559 23.289,214.941 23.594,220.313 23.824 M140.466 227.539 C 120.141 258.147,78.529 265.502,49.392 243.636 L 45.269 240.542 45.486 291.968 L 45.703 343.394 48.281 348.630 C 66.080 384.778,159.190 407.113,246.029 396.066 C 298.958 389.333,339.566 371.711,349.696 351.080 L 351.953 346.484 352.170 293.513 L 352.386 240.543 348.263 243.636 C 319.301 265.372,274.980 257.280,257.956 227.149 C 255.373 222.578,255.715 222.518,251.953 228.201 C 227.319 265.409,170.407 265.184,146.481 227.782 C 143.135 222.552,143.761 222.577,140.466 227.539 " stroke="none" fill="#141a46" fill-rule="evenodd"></path></g></svg>