<svg xmlns="http://www.w3.org/2000/svg" viewBox="0 0 18 18" width="100%" height="100%"  xmlns:xlink="http://www.w3.org/1999/xlink" preserveAspectRatio="xMinYMin meet"><rect id="svgEditorBackground" x="0" y="0" width="18" height="18" style="fill:none;stroke:none;"/><defs><clipPath id="b"><path d="M14.969 7.53a6.137 6.137 0 11-7.395-4.543 6.137 6.137 0 017.395 4.543z" fill="none"/></clipPath><radialGradient id="a" cx="-105.006" cy="-10.409" r="5.954" gradientTransform="matrix(1.036 0 0 1.027 117.739 19.644)" gradientUnits="userSpaceOnUse"><stop offset="0" stop-color="#5ea0ef"/><stop offset="1" stop-color="#151B46"/></radialGradient></defs><path d="M2.954,5.266a0.17500000000000002,0.17500000000000002,0,0,1,-0.17600000000000002,-0.17600000000000002A2.012,2.012,0,0,0,0.7690000000000001,3.081a0.17600000000000002,0.17600000000000002,0,0,1,-0.17600000000000002,-0.17500000000000002a0.17600000000000002,0.17600000000000002,0,0,1,0.17600000000000002,-0.17600000000000002A2.012,2.012,0,0,0,2.778,0.7200000000000001a0.17500000000000002,0.17500000000000002,0,0,1,0.17600000000000002,-0.17600000000000002a0.17500000000000002,0.17500000000000002,0,0,1,0.17600000000000002,0.17600000000000002a2.012,2.012,0,0,0,2.009,2.009a0.17500000000000002,0.17500000000000002,0,0,1,0.17600000000000002,0.17600000000000002a0.17500000000000002,0.17500000000000002,0,0,1,-0.17600000000000002,0.17600000000000002A2.011,2.011,0,0,0,3.13,5.09a0.17700000000000002,0.17700000000000002,0,0,1,-0.17600000000000002,0.17600000000000002ZM15.611,17.456a0.14100000000000001,0.14100000000000001,0,0,1,-0.14100000000000001,-0.14100000000000001a1.609,1.609,0,0,0,-1.6070000000000002,-1.6070000000000002a0.14100000000000001,0.14100000000000001,0,0,1,-0.14100000000000001,-0.14a0.14100000000000001,0.14100000000000001,0,0,1,0.14100000000000001,-0.14100000000000001a1.608,1.608,0,0,0,1.6070000000000002,-1.6070000000000002a0.14100000000000001,0.14100000000000001,0,0,1,0.14100000000000001,-0.14100000000000001a0.14100000000000001,0.14100000000000001,0,0,1,0.14100000000000001,0.14100000000000001a1.608,1.608,0,0,0,1.6070000000000002,1.6070000000000002a0.14100000000000001,0.14100000000000001,0,1,1,0,0.28200000000000003a1.609,1.609,0,0,0,-1.6070000000000002,1.6070000000000002a0.14100000000000001,0.14100000000000001,0,0,1,-0.14100000000000001,0.14Z" fill="#141a46"/><path d="M14.969,7.53a6.1370000000000005,6.1370000000000005,0,1,1,-7.3950000000000005,-4.543a6.1370000000000005,6.1370000000000005,0,0,1,7.3950000000000005,4.543Z" id="e1_path" style="fill:url(#a);"/><g clip-path="url(#b)" fill="#f2f2f2"><path d="M5.709,13.115a1.6380000000000001,1.6380000000000001,0,1,0,0.005000000000000001,-3.275a1.307,1.307,0,0,0,0.007000000000000002,-0.14A1.6510000000000002,1.6510000000000002,0,0,0,4.06,8.064H2.832a6.251,6.251,0,0,0,1.5950000000000002,5.051ZM15.045,7.815c0,-0.015000000000000003,0,-0.030000000000000006,-0.007000000000000002,-0.04400000000000001a5.978,5.978,0,0,0,-1.4060000000000001,-2.88a1.8250000000000002,1.8250000000000002,0,0,0,-0.28900000000000003,-0.09000000000000002a1.806,1.806,0,0,0,-2.3,1.6630000000000003a2,2,0,0,0,-0.2,-0.013000000000000003a1.737,1.737,0,0,0,-0.5810000000000001,3.374a1.451,1.451,0,0,0,0.541,0.1h2.03a13.453,13.453,0,0,0,2.212,-2.11Z"/></g><path d="M17.191,3.832c-0.6290000000000001,-1.047,-2.1,-1.455,-4.155,-1.149a14.606,14.606,0,0,0,-2.082,0.452a6.456,6.456,0,0,1,1.528,0.7670000000000001c0.24100000000000002,-0.05300000000000001,0.48300000000000004,-0.11600000000000002,0.7150000000000001,-0.15100000000000002a7.49,7.49,0,0,1,1.103,-0.08900000000000002a2.188,2.188,0,0,1,1.959,0.7250000000000001c0.38300000000000006,0.6380000000000001,0.06000000000000001,1.729,-0.8860000000000001,3a16.723,16.723,0,0,1,-4.7490000000000006,4.051A16.758,16.758,0,0,1,4.8,13.7c-1.564,0.234,-2.6820000000000004,0,-3.065,-0.6360000000000001s-0.06000000000000001,-1.73,0.8860000000000001,-2.995c0.11700000000000002,-0.15700000000000003,0.14600000000000002,-0.234,0.279,-0.39200000000000007a6.252,6.252,0,0,1,0.026000000000000006,-1.6300000000000001a11.552,11.552,0,0,0,-1.17,1.372C0.517,11.076,0.18100000000000002,12.566,0.809,13.613a3.165,3.165,0,0,0,2.9,1.249a8.434,8.434,0,0,0,1.251,-0.1a17.855,17.855,0,0,0,6.219,-2.4A17.808,17.808,0,0,0,16.24,8.03c1.243,-1.661,1.5790000000000002,-3.15,0.9510000000000001,-4.198Z" fill="#141a46"/></svg>