<?xml version="1.0" encoding="utf-8"?>
<!-- Generator: Adobe Illustrator 21.1.0, SVG Export Plug-In . SVG Version: 6.00 Build 0)  -->
<svg version="1.1" id="Layer_1" xmlns="http://www.w3.org/2000/svg" xmlns:xlink="http://www.w3.org/1999/xlink" x="0px" y="0px"
	 viewBox="278 62 1 112" style="enable-background:new 0 0 553 240;" xml:space="preserve">
<style type="text/css">
	.st0{fill:#FFFFFF;}
	.st1{}
	.st2{opacity:0.1;fill:#FFFFFF;enable-background:new    ;}
	.st3{fill:#F2F2F2;}
</style>
<g id="Layer_1_xA0_Image_1_">
</g>
<g>
	<g id="Layer_2_xA0_Image_1_">
		<rect x="23.3" y="19.6" class="st0" width="509" height="199"/>
	</g>
	<g>
		<circle class="st1" cx="278.6" cy="118.3" r="55.7"/>
		<path class="st2" d="M240,78.3c-23,20.5-25,55.6-4.5,78.6s55.6,25,78.6,4.5c1.6-1.4,3.1-2.9,4.5-4.5L240,78.3z"/>
		<path class="st0" d="M235.8,127.4c-0.7,0-1.3-0.3-1.7-0.7c-0.5-0.5-0.7-1.1-0.7-1.7c0-0.7,0.3-1.3,0.7-1.7
			c0.4-0.5,1.1-0.8,1.7-0.7c0.7,0,1.3,0.3,1.7,0.7c0.5,0.5,0.7,1.1,0.7,1.7c0,0.7-0.3,1.3-0.7,1.7
			C237.1,127.2,236.4,127.4,235.8,127.4z"/>
		<path class="st0" d="M270.3,127h-4.6l-16.3-25.3c-0.4-0.6-0.7-1.3-1-2h-0.1c0.2,1.4,0.2,2.9,0.2,4.3V127h-3.7V95.3h4.8l15.9,24.8
			c0.7,1,1.1,1.7,1.3,2.1h0.1c-0.2-1.5-0.3-3.1-0.2-4.7V95.3h3.7V127z"/>
		<path class="st0" d="M295.4,127h-16.9V95.3h16.1v3.4h-12.3v10.5h11.4v3.3h-11.4v11h13.1L295.4,127z"/>
		<path class="st0" d="M320.3,98.6h-9.2V127h-3.7V98.6h-9.1v-3.4h22V98.6z"/>
		<path class="st3" d="M238.6,134.3v4.9h4.5v0.8h-4.5v5.7h-0.9v-12.2h5.7v0.8L238.6,134.3z"/>
		<path class="st3" d="M250.2,137.8c-0.3-0.2-0.6-0.3-0.9-0.3c-0.7,0-1.4,0.4-1.7,1.1c-0.5,0.9-0.8,2-0.7,3v4.1H246V137h0.8v1.9l0,0
			c0.2-0.6,0.5-1.1,0.9-1.5c0.4-0.4,0.9-0.6,1.5-0.6c0.3,0,0.6,0,0.9,0.2L250.2,137.8z"/>
		<path class="st3" d="M257.4,145.7v-1.7l0,0c-0.3,0.6-0.7,1.1-1.2,1.4c-0.5,0.4-1.1,0.5-1.7,0.5c-0.7,0-1.4-0.2-2-0.7
			c-0.5-0.5-0.7-1.1-0.7-1.7c0-1.5,1-2.4,3-2.7l2.7-0.4c0-1.9-0.7-2.8-2.1-2.8c-1.1,0-2.1,0.4-2.9,1.1v-0.9c0.4-0.3,0.8-0.5,1.3-0.7
			c0.5-0.2,1-0.3,1.6-0.3c0.8,0,1.5,0.3,2.1,0.8c0.5,0.7,0.8,1.5,0.7,2.4v5.7L257.4,145.7z M255,141.3c-0.7,0-1.3,0.3-1.9,0.6
			c-0.7,0.8-0.7,1.9,0,2.7c0.4,0.4,0.9,0.5,1.4,0.5c0.8,0,1.6-0.3,2.1-0.9c0.6-0.7,0.9-1.5,0.8-2.4V141L255,141.3z"/>
		<path class="st3" d="M272.2,145.7v-5.2c0.1-0.8-0.1-1.6-0.5-2.3c-0.4-0.5-1-0.7-1.6-0.7c-0.7,0-1.3,0.3-1.7,0.9
			c-0.5,0.6-0.8,1.4-0.7,2.2v5.1h-0.8v-5.2c0-1.9-0.7-2.9-2.2-2.9c-0.7,0-1.3,0.3-1.7,0.9c-0.5,0.7-0.7,1.5-0.7,2.3v5h-0.8v-8.7h0.8
			v1.4l0,0c0.5-1.1,1.5-1.7,2.7-1.7c0.6,0,1.2,0.2,1.6,0.6c0.5,0.4,0.8,0.9,0.9,1.4c0.2-0.6,0.6-1.1,1.2-1.5
			c0.5-0.3,1.1-0.5,1.7-0.5c1.9,0,2.9,1.2,2.9,3.5v5.4L272.2,145.7z"/>
		<path class="st3" d="M276.2,141.4c-0.1,1,0.2,2,0.8,2.8c0.6,0.7,1.4,1.1,2.3,1c1,0,2.1-0.4,2.9-1.1v0.8c-0.9,0.6-1.9,1-3,1
			c-1,0-2-0.4-2.7-1.2c-0.8-1-1.1-2.2-1-3.5c0-1.2,0.3-2.3,1.1-3.2c0.7-0.9,1.7-1.3,2.8-1.3c1-0.1,1.9,0.4,2.5,1.1
			c0.6,0.9,0.9,2,0.9,3.1v0.3L276.2,141.4z M281.8,140.7c0-0.8-0.2-1.7-0.7-2.3c-0.4-0.6-1.1-0.9-1.8-0.9c-0.8,0-1.5,0.3-2,0.8
			c-0.6,0.7-0.9,1.5-1,2.3L281.8,140.7z"/>
		<path class="st3" d="M292.6,145.7h-0.7l-1.9-6.5c-0.1-0.2-0.1-0.5-0.1-0.7l0,0c0,0.2-0.1,0.5-0.2,0.7l-2.1,6.6h-0.7l-2.6-8.7h0.9
			l2,7c0.1,0.2,0.1,0.5,0.1,0.7l0,0c0-0.2,0.1-0.5,0.2-0.7l2.2-7h0.5l2,7c0.1,0.2,0.1,0.5,0.1,0.7l0,0c0-0.2,0.1-0.5,0.1-0.7l2.1-7
			h0.8L292.6,145.7z"/>
		<path class="st3" d="M300.9,145.9c-1.1,0.1-2.2-0.4-3-1.3c-1.5-2-1.5-4.7,0-6.6c0.8-0.8,1.9-1.3,3-1.2c1.1-0.1,2.2,0.4,2.9,1.2
			c0.8,0.9,1.1,2.1,1.1,3.4c0.1,1.2-0.3,2.4-1.1,3.3C303.1,145.5,302,145.9,300.9,145.9z M300.9,137.5c-0.9,0-1.8,0.3-2.5,1
			c-0.7,0.8-1,1.8-0.9,2.9c-0.1,1,0.3,2,0.9,2.7c0.6,0.7,1.5,1.1,2.4,1c0.9,0.1,1.8-0.3,2.4-1c1.1-1.7,1.1-4,0-5.7
			C302.7,137.8,301.9,137.4,300.9,137.5L300.9,137.5z"/>
		<path class="st3" d="M311.7,137.8c-0.3-0.2-0.6-0.3-0.9-0.3c-0.7,0-1.4,0.4-1.7,1.1c-0.5,0.9-0.8,2-0.7,3v4.1h-0.7V137h0.8v1.9
			l0,0c0.2-0.6,0.5-1.1,1-1.5c0.4-0.4,0.9-0.6,1.5-0.6c0.3,0,0.6,0,0.9,0.2V137.8z"/>
		<path class="st3" d="M318.8,145.7l-4.2-4.3l0,0v4.3h-0.8v-12.9h0.8v8.3l0,0l4-4.1h1l-4.1,4.2l4.5,4.5H318.8z"/>
	</g>
</g>
</svg>
