<?xml version="1.0" standalone="no"?>
<!DOCTYPE svg PUBLIC "-//W3C//DTD SVG 20010904//EN"
 "http://www.w3.org/TR/2001/REC-SVG-20010904/DTD/svg10.dtd">
<svg version="1.0" xmlns="http://www.w3.org/2000/svg"
 width="600.000000pt" height="315.000000pt" viewBox="100 25 400 250"
 preserveAspectRatio="xMidYMid meet">
<metadata>
Created by potrace 1.16, written by Peter Selinger 2001-2019
</metadata>
<g transform="translate(0.000000,315.000000) scale(0.100000,-0.100000)"
 stroke="none">
<path d="M3840 1845 l0 -1306 -32 6 c-18 3 -575 86 -1238 185 -663 99 -1215
181 -1228 183 -13 3 -20 1 -15 -4 13 -12 2494 -839 2517 -838 12 0 203 78 426
173 l405 172 3 1335 2 1335 -78 32 -78 32 -342 0 -342 0 0 -1305z"/>
<path d="M2358 2849 l-3 -102 -310 -122 c-170 -68 -316 -127 -325 -133 -9 -6
-58 -64 -108 -130 l-92 -121 0 -270 0 -269 28 -6 c15 -3 58 -10 97 -16 38 -6
70 -12 71 -13 0 -1 117 -141 260 -312 l259 -310 3 123 c1 67 6 122 10 122 4 0
161 -54 350 -121 188 -66 349 -119 357 -117 8 2 118 91 245 198 l230 195 0
578 c0 317 -3 577 -7 577 -5 0 -110 -19 -234 -42 l-226 -41 -292 214 c-160
118 -296 215 -301 217 -5 2 -10 -40 -12 -99z m599 -1356 c-3 -3 -1169 172
-1214 182 l-23 5 0 299 0 298 118 22 c64 12 342 63 617 114 l500 93 3 -505 c1
-277 1 -506 -1 -508z"/>
</g>
</svg>
